<svg xmlns="http://www.w3.org/2000/svg" width="150" height="35" viewBox="0 0 200 47" fill="white">
<path d="M65.0019 37.9706C62.1399 37.9706 59.6393 37.3201 57.5 36.0192C55.3608 34.7183 53.6985 32.9115 52.5133 30.5988C51.328 28.2571 50.7354 25.5397 50.7354 22.4464C50.7354 19.3243 51.3424 16.5779 52.5566 14.2074C53.7997 11.8079 55.5487 9.94332 57.8036 8.61351C60.0874 7.25478 62.7904 6.57542 65.9126 6.57542C69.4684 6.57542 72.4171 7.42824 74.7587 9.13387C77.1003 10.8395 78.618 13.1956 79.3119 16.2021H73.1109C72.6483 14.7856 71.81 13.687 70.5958 12.9065C69.3816 12.097 67.8206 11.6923 65.9126 11.6923C62.8771 11.6923 60.5355 12.6608 58.8877 14.5977C57.2399 16.5057 56.416 19.1364 56.416 22.4898C56.416 25.8432 57.2254 28.4451 58.8443 30.2952C60.4921 32.1165 62.7181 33.0271 65.5223 33.0271C68.2686 33.0271 70.3356 32.2899 71.7233 30.8156C73.1398 29.3123 73.9926 27.3465 74.2817 24.9182H66.6064V20.7553H79.8756V37.4502H74.7587L74.3251 33.4608C73.3422 34.9062 72.1135 36.0192 70.6392 36.7997C69.1648 37.5803 67.2857 37.9706 65.0019 37.9706Z" fill="white"/>
<path d="M82.9734 37.4502V15.9419H87.9168L88.4372 19.9747C89.2177 18.5871 90.2729 17.4886 91.6027 16.6791C92.9614 15.8407 94.5514 15.4216 96.3727 15.4216V21.2756H94.8116C93.5974 21.2756 92.5133 21.4635 91.5593 21.8394C90.6053 22.2152 89.8537 22.8656 89.3044 23.7907C88.7841 24.7158 88.5239 26.0022 88.5239 27.6501V37.4502H82.9734Z" fill="white"/>
<path d="M107.937 37.9706C105.856 37.9706 103.977 37.4936 102.3 36.5396C100.652 35.5856 99.3371 34.2702 98.3542 32.5935C97.4002 30.8879 96.9232 28.9221 96.9232 26.6961C96.9232 24.4701 97.4146 22.5187 98.3975 20.842C99.3804 19.1364 100.696 17.8066 102.344 16.8526C104.02 15.8986 105.899 15.4216 107.981 15.4216C110.033 15.4216 111.884 15.8986 113.531 16.8526C115.208 17.8066 116.523 19.1364 117.477 20.842C118.46 22.5187 118.952 24.4701 118.952 26.6961C118.952 28.9221 118.46 30.8879 117.477 32.5935C116.523 34.2702 115.208 35.5856 113.531 36.5396C111.855 37.4936 109.99 37.9706 107.937 37.9706ZM107.937 33.1572C109.383 33.1572 110.64 32.6224 111.71 31.5528C112.78 30.4542 113.315 28.8353 113.315 26.6961C113.315 24.5568 112.78 22.9524 111.71 21.8827C110.64 20.7842 109.397 20.2349 107.981 20.2349C106.507 20.2349 105.235 20.7842 104.165 21.8827C103.124 22.9524 102.604 24.5568 102.604 26.6961C102.604 28.8353 103.124 30.4542 104.165 31.5528C105.235 32.6224 106.492 33.1572 107.937 33.1572Z" fill="white"/>
<path d="M125.19 37.4502L118.903 15.9419H124.41L128.139 31.4227L132.475 15.9419H138.633L142.969 31.4227L146.742 15.9419H152.249L145.918 37.4502H140.151L135.554 21.3624L130.958 37.4502H125.19Z" fill="white"/>
<path d="M166.332 37.9706C164.713 37.9706 163.296 37.667 162.082 37.0599C160.868 36.4528 159.885 35.6 159.133 34.5015L158.526 37.4502H153.583V6.22852H159.133V19.0207C159.827 18.0667 160.738 17.2284 161.865 16.5057C163.022 15.7829 164.511 15.4216 166.332 15.4216C168.355 15.4216 170.162 15.913 171.752 16.8959C173.342 17.8788 174.6 19.2231 175.525 20.9287C176.45 22.6344 176.912 24.5713 176.912 26.7394C176.912 28.9076 176.45 30.8445 175.525 32.5501C174.6 34.2268 173.342 35.5567 171.752 36.5396C170.162 37.4936 168.355 37.9706 166.332 37.9706ZM165.161 33.1138C166.924 33.1138 168.384 32.5212 169.541 31.336C170.697 30.1507 171.275 28.6185 171.275 26.7394C171.275 24.8603 170.697 23.3137 169.541 22.0995C168.384 20.8854 166.924 20.2783 165.161 20.2783C163.369 20.2783 161.894 20.8854 160.738 22.0995C159.61 23.2848 159.047 24.817 159.047 26.6961C159.047 28.5751 159.61 30.1218 160.738 31.336C161.894 32.5212 163.369 33.1138 165.161 33.1138Z" fill="white"/>
<path d="M180.443 46.9902L185.43 36.0192H184.129L175.76 15.9419H181.787L187.815 31.0758L194.103 15.9419H200L186.341 46.9902H180.443Z" fill="white"/>
<path d="M22.9429 0C23.4324 0 23.9251 0.0295661 24.4212 0.0886981C23.9284 0.0295661 23.4356 0 22.9429 0Z" fill="url(#paint0_linear_1_1462)"/>
<path d="M42.7619 29.9997C41.1317 33.9245 38.384 37.2836 34.8604 39.6595C31.3367 42.0355 27.1925 43.3235 22.9429 43.3635L30.2555 13.763C30.3393 13.4427 33.0544 2.73493 24.7858 0.0986328C25.6524 0.177871 26.5131 0.311178 27.363 0.497774C30.4659 1.17414 33.3823 2.52387 35.9061 4.45154C38.4298 6.37922 40.4993 8.83777 41.9682 11.6534C43.4371 14.469 44.2696 17.5729 44.4067 20.7457C44.5439 23.9185 43.9824 27.0826 42.7619 30.0145V29.9997Z" fill="#00D1FF"/>
<path d="M1.02535 30.3001L8.9441 34.9863L13.6451 42.91C13.8469 43.2536 14.1427 43.5322 14.4976 43.7132C14.8538 43.8928 15.2535 43.968 15.6507 43.93C16.0465 43.8903 16.4226 43.7381 16.7347 43.4915C17.0421 43.248 17.2731 42.9213 17.4 42.5503L26.1909 17.7395L1.39493 26.5255C1.01953 26.6568 0.689532 26.8928 0.443883 27.2055C0.261514 27.4407 0.131096 27.7118 0.0612397 28.0011C-0.00861681 28.2904 -0.0163222 28.5911 0.03863 28.8836C0.0935822 29.1761 0.209943 29.4535 0.380031 29.6977C0.550119 29.9419 0.770068 30.1472 1.02535 30.3001Z" fill="#00D1FF"/>
<path d="M26.1907 17.7395L8.94389 34.9863L1.02513 30.2853C0.682803 30.0821 0.405496 29.7855 0.225711 29.4303C0.0459249 29.0751 -0.0288891 28.676 0.010035 28.2798C0.0455914 27.8838 0.196336 27.5069 0.443664 27.1957C0.689028 26.8815 1.01897 26.6439 1.39471 26.5107L26.1907 17.7395Z" fill="url(#paint1_linear_1_1462)"/>
<mask id="mask0_1_1462" style="mask-type:alpha" maskUnits="userSpaceOnUse" x="1" y="0" width="30" height="21">
<path d="M30.3316 13.753L1.14014 20.9178V20.8932C1.14014 20.6468 1.16477 20.4004 1.18448 20.1639C1.1796 20.1362 1.1796 20.1079 1.18448 20.0801C1.18448 19.8288 1.2239 19.5874 1.25347 19.3311C1.28304 19.0749 1.3126 18.8088 1.35202 18.5476C1.39144 18.2865 1.43087 18.0253 1.48015 17.7641C1.52942 17.503 1.5787 17.2714 1.63783 16.9905C1.69696 16.7096 1.74624 16.4977 1.80537 16.2809V16.2267C1.87436 15.9705 1.94335 15.7339 2.01726 15.4678C2.08625 15.2412 2.16016 15.0194 2.23408 14.7928L2.27843 14.6646C2.34741 14.4577 2.42133 14.2556 2.50017 14.0487C2.52481 13.9698 2.55437 13.8959 2.58394 13.822C2.65621 13.6282 2.73506 13.436 2.82047 13.2455C2.89439 13.0681 2.9683 12.8907 3.05207 12.7182L3.1999 12.3979C3.29352 12.2008 3.38715 12.0086 3.4857 11.8164C3.58426 11.6243 3.66803 11.4617 3.76658 11.2892L3.91441 11.0182C3.99818 10.8654 4.08688 10.7176 4.17558 10.5697C4.26428 10.4219 4.33326 10.3037 4.41703 10.1755C4.43701 10.1349 4.46184 10.0969 4.49095 10.0622C4.56322 9.94065 4.64206 9.81746 4.72748 9.69263C5.01328 9.25899 5.31879 8.83521 5.63416 8.42129C5.78692 8.22911 5.93968 8.03693 6.09737 7.84968C6.45216 7.41604 6.83159 6.99227 7.23073 6.58327C7.38842 6.41901 7.55267 6.25476 7.7235 6.0905V6.06586L8.10785 5.70615L8.49714 5.35628C8.89135 5.00642 9.30035 4.67626 9.71427 4.37075C9.97051 4.17364 10.207 3.98639 10.4978 3.80407L10.6062 3.73015L10.9807 3.48377L11.434 3.19304C11.6164 3.0797 11.8036 2.97129 11.9909 2.86288L12.3309 2.67563C12.5329 2.5623 12.7349 2.45389 12.9419 2.35041C13.1489 2.24693 13.2671 2.18287 13.4347 2.10402L14.1886 1.76401L14.5237 1.62111L14.7553 1.52749L15.1495 1.37473L15.6422 1.19733L16.135 1.03472L16.6278 0.881962L17.1205 0.73906C17.9572 0.514245 18.8062 0.338195 19.6632 0.2118C20.3482 0.113246 21.043 0.0442593 21.7427 0.00976562C22.0926 0.00976562 22.4424 0.00976562 22.7923 0.00976562H23.3738C23.8665 0.00976562 24.3593 0.0393313 24.8521 0.0984633C33.1305 2.72491 30.4154 13.4327 30.3316 13.753Z" fill="url(#paint2_linear_1_1462)"/>
</mask>
<g mask="url(#mask0_1_1462)">
<path fill-rule="evenodd" clip-rule="evenodd" d="M31.0101 -0.772815L-4.62303 8.05797L-5.09717 6.14478L30.536 -2.686L31.0101 -0.772815Z" fill="url(#paint3_linear_1_1462)"/>
<path fill-rule="evenodd" clip-rule="evenodd" d="M31.9403 2.37562L-3.69286 11.2064L-4.16699 9.29321L31.4662 0.462433L31.9403 2.37562Z" fill="url(#paint4_linear_1_1462)"/>
<path fill-rule="evenodd" clip-rule="evenodd" d="M32.871 5.5243L-2.76219 14.3551L-3.23633 12.4419L32.3968 3.61111L32.871 5.5243Z" fill="url(#paint5_linear_1_1462)"/>
<path fill-rule="evenodd" clip-rule="evenodd" d="M33.8036 8.67274L-1.82958 17.5035L-2.30371 15.5903L33.3294 6.75955L33.8036 8.67274Z" fill="url(#paint6_linear_1_1462)"/>
<path fill-rule="evenodd" clip-rule="evenodd" d="M34.7342 11.8212L-0.898911 20.652L-1.37305 18.7388L34.2601 9.90799L34.7342 11.8212Z" fill="url(#paint7_linear_1_1462)"/>
</g>
<defs>
<linearGradient id="paint0_linear_1_1462" x1="23.0907" y1="-0.458274" x2="24.1748" y2="0.458272" gradientUnits="userSpaceOnUse">
<stop stop-color="#00EE8C"/>
<stop offset="1" stop-color="#0096F4"/>
</linearGradient>
<linearGradient id="paint1_linear_1_1462" x1="21.6817" y1="40.1604" x2="11.8264" y2="22.6672" gradientUnits="userSpaceOnUse">
<stop stop-color="#00397B" stop-opacity="0"/>
<stop offset="0.0001" stop-color="#1900B0" stop-opacity="0"/>
<stop offset="1" stop-color="#00D1FF"/>
<stop offset="1" stop-color="#00A3FF"/>
</linearGradient>
<linearGradient id="paint2_linear_1_1462" x1="12.8137" y1="7.38646" x2="30.5533" y2="11.8214" gradientUnits="userSpaceOnUse">
<stop stop-color="#6FEDD6"/>
<stop offset="1" stop-color="#05A386"/>
</linearGradient>
<linearGradient id="paint3_linear_1_1462" x1="1.13595" y1="6.09819" x2="4.8744" y2="-7.75817" gradientUnits="userSpaceOnUse">
<stop stop-color="#00FFF0"/>
<stop offset="1" stop-color="#0285CF"/>
</linearGradient>
<linearGradient id="paint4_linear_1_1462" x1="2.06612" y1="9.24662" x2="5.80457" y2="-4.60973" gradientUnits="userSpaceOnUse">
<stop stop-color="#00FFF0"/>
<stop offset="1" stop-color="#0285CF"/>
</linearGradient>
<linearGradient id="paint5_linear_1_1462" x1="2.99679" y1="12.3953" x2="6.73524" y2="-1.46105" gradientUnits="userSpaceOnUse">
<stop stop-color="#00FFF0"/>
<stop offset="1" stop-color="#0285CF"/>
</linearGradient>
<linearGradient id="paint6_linear_1_1462" x1="3.9294" y1="15.5437" x2="7.66785" y2="1.68739" gradientUnits="userSpaceOnUse">
<stop stop-color="#00FFF0"/>
<stop offset="1" stop-color="#0285CF"/>
</linearGradient>
<linearGradient id="paint7_linear_1_1462" x1="4.86007" y1="18.6922" x2="8.59852" y2="4.83582" gradientUnits="userSpaceOnUse">
<stop stop-color="#00FFF0"/>
<stop offset="1" stop-color="#0285CF"/>
</linearGradient>
</defs>
<script xmlns=""/></svg>